<svg xmlns="http://www.w3.org/2000/svg" xmlns:xlink="http://www.w3.org/1999/xlink" version="1.1" x="0px" y="0px" viewBox="0 0 1000 1000" enable-background="new 0 0 1000 1000" xml:space="preserve" width="1000" height="1000">
<metadata> Svg Vector Icons : http://www.onlinewebfonts.com/icon </metadata>
<g><g><path d="M856.4,93.1c-4.1-2.3-9.4-0.9-11.7,3.2c-2.3,4.1-0.9,9.4,3.2,11.7c40.2,22.8,44.6,86,44.5,114.5c-45.3-27.2-119.6-66-123.1-67.8c-0.4-0.2-0.9-0.4-1.3-0.5c-74.4-24.3-152.1-3.7-224.4,59.6c-7.3,6.4-14.4,12.8-21.2,18.9C473.1,277.1,426.6,319,277.5,386C112.3,460.3,10,533.5,10,668.8c0,65.6,23.5,126.3,66.3,170.8c42.3,44.1,99.3,68.4,160.4,68.4c99.5,0,196.8-71.2,226.3-165.6c0.5-1.7,52.6-175.7,131.5-271.6c47.2-57.4,62.5-100,65.5-130.8c4.7-47.8,23-89.1,42.9-102.7c8.1-5.5,16.5-7.1,25.6-4.8c33,8.2,132.6,71.6,153.6,85.1v574.2c0,4.7,3.8,8.6,8.6,8.6c4.7,0,8.6-3.8,8.6-8.6V312.8c0-2.9-1.5-5.6-3.9-7.2c-5-3.3-123.2-80-162.8-89.9c-13.7-3.4-27.4-0.9-39.5,7.3c-18.3,12.5-33.1,38.3-42.3,73c-5.2-9.5-11.7-16.3-17.2-20.7c-3.7-3-9.1-2.5-12.1,1.2c-3,3.7-2.5,9.1,1.2,12.1c25.6,21.1,26.7,56.8,4.6,102c0,0,0,0,0,0h-88.9c-4.7,0-8.6,3.8-8.6,8.6c0,4.7,3.8,8.6,8.6,8.6h79.6c-9.6,16.4-21.9,33.8-37,52.1C511.8,544,464.2,681.5,450.5,724.4h-97.9c-4.7,0-8.6,3.8-8.6,8.6c0,4.7,3.8,8.6,8.6,8.6H445c-6.4,18.9-15.7,36.8-27.4,53.2H255.5c-4.7,0-8.6,3.8-8.6,8.6c0,4.7,3.8,8.6,8.6,8.6h148.6c-41.7,47.8-104.1,78.9-167.5,78.9c-56.4,0-108.9-22.4-148-63.1C49,786.4,27.2,730,27.2,668.8c0-20.8,2.5-40.1,7.7-58.3l211,0c4.7,0,8.6-3.8,8.6-8.6c0-4.7-3.8-8.6-8.6-8.6l-205.2,0c8.4-21.5,20.9-41.5,37.7-60.5c0.2,0,0.4,0.1,0.5,0.1h264c4.7,0,8.6-3.8,8.6-8.6c0-4.7-3.8-8.6-8.6-8.6h-248c39.7-37.7,98.5-73.1,189.7-114c151.5-68.1,201.2-112.9,249.3-156.3c6.8-6.1,13.8-12.5,21-18.8c68.3-59.7,138-78.7,207.1-56.4c8.2,4.3,94,49.2,133.8,74.5c2.5,1.6,5.7,1.8,8.4,0.5c2.7-1.3,4.5-3.9,4.8-6.9C909.3,233.9,918.4,128.3,856.4,93.1z"/><path d="M125.9,787.9c-29.7-30.9-46-73.2-46-119.1c0-4.7-3.8-8.6-8.6-8.6c-4.7,0-8.6,3.8-8.6,8.6c0,50.3,18,96.8,50.8,131c32.5,33.8,76.2,52.5,123.1,52.5c4.7,0,8.6-3.8,8.6-8.6c0-4.7-3.8-8.6-8.6-8.6C194.4,835.1,155.1,818.3,125.9,787.9z"/><path d="M981.4,97.8c-4.7,0-8.6,3.8-8.6,8.6v793c0,4.7,3.8,8.6,8.6,8.6c4.7,0,8.6-3.8,8.6-8.6v-793C990,101.6,986.2,97.8,981.4,97.8z"/><path d="M942.1,559.4c-4.7,0-8.6,3.8-8.6,8.6v293.5c0,4.7,3.8,8.6,8.6,8.6s8.6-3.8,8.6-8.6V568C950.7,563.3,946.8,559.4,942.1,559.4z"/></g><g/><g/><g/><g/><g/><g/><g/><g/><g/><g/><g/><g/><g/><g/><g/></g>
</svg>