<svg xmlns:rdf="http://www.w3.org/1999/02/22-rdf-syntax-ns#" xmlns="http://www.w3.org/2000/svg" xmlns:cc="http://creativecommons.org/ns#" xmlns:xlink="http://www.w3.org/1999/xlink" xmlns:dc="http://purl.org/dc/elements/1.1/" xmlns:svg="http://www.w3.org/2000/svg" xmlns:inkscape="http://www.inkscape.org/namespaces/inkscape" xmlns:sodipodi="http://sodipodi.sourceforge.net/DTD/sodipodi-0.dtd" xmlns:ns1="http://sozi.baierouge.fr" id="svg7566" viewBox="0 0 85.206 142.95" version="1.1" width="50" height="50">
  <title id="title8999">Construction Worker</title>
  <defs id="defs3">
    <linearGradient id="linearGradient3804">
      <stop id="stop3806" stop-color="#fff" offset="0"/>
      <stop id="stop3808" stop-color="#fff" stop-opacity="0" offset="1"/>
    </linearGradient>
    <radialGradient id="radialGradient5048" gradientUnits="userSpaceOnUse" cy="368.24" cx="197.99" gradientTransform="matrix(1 0 0 .49986 0 184.17)" r="17.673">
      <stop id="stop3419" stop-color="#fffffb" offset="0"/>
      <stop id="stop3421" stop-color="#fffffb" stop-opacity="0" offset="1"/>
    </radialGradient>
    <radialGradient id="radialGradient5119" xlink:href="#linearGradient3804" gradientUnits="userSpaceOnUse" cy="678.43" cx="160.36" gradientTransform="matrix(1 0 0 .66013 0 230.58)" r="54.643"/>
    <radialGradient id="radialGradient5303" xlink:href="#linearGradient3804" gradientUnits="userSpaceOnUse" cy="270" cx="204.3" gradientTransform="matrix(1 0 0 .53042 0 126.79)" r="12.369"/>
    <radialGradient id="radialGradient9142" xlink:href="#linearGradient3804" gradientUnits="userSpaceOnUse" cy="278.8" cx="399.28" gradientTransform="matrix(1 0 0 .41774 119.29 -15.523)" r="14.625"/>
  </defs>
  <g id="layer1" transform="translate(-450.67 -30.598)">
    <g id="g9190" fill-rule="evenodd">
      <path id="path5004" d="m515.71 800.93c0 24.853-16.15 45-36.071 45-19.922 0-36.071-20.147-36.071-45s16.15-45 36.071-45c19.922 0 36.071 20.147 36.071 45z" transform="matrix(1.1672 0 0 .99911 -66.572 -672.14)" stroke="#000" stroke-width=".92602" fill="#1b1bff"/>
      <path id="path5006" d="m480 710.93c0 14.991-12.952 27.143-28.929 27.143s-28.929-12.152-28.929-27.143 12.952-27.143 28.929-27.143 28.929 12.152 28.929 27.143z" transform="matrix(.998 0 0 1.2479 42.747 -820.13)" stroke="#000" stroke-width=".89609" fill="#fff9cf"/>
      <path id="path5008" stroke="#000" transform="translate(253.99 -634.28)" fill="#fff9cf" d="m247.14 716.65c0 3.1559-2.7183 5.7143-6.0714 5.7143-3.3532 0-6.0714-2.5584-6.0714-5.7143s2.7183-5.7143 6.0714-5.7143c3.3532 0 6.0714 2.5584 6.0714 5.7143z"/>
      <path id="path5010" stroke="#000" stroke-width="1.0515" fill="#fff9cf" d="m506.46 90.414c0 0.81019-5.3485 5.8605-11.939 5.8605-6.5901 0-11.939-5.0503-11.939-5.8605 0-0.81016 5.3485 2.9251 11.939 2.9251 6.5901 0 11.939-3.7352 11.939-2.9251z"/>
      <path id="path5018" transform="matrix(1 0 0 1.3939 277.76 -394.58)" fill="url(#radialGradient5048)" d="m215.16 368.24c0 4.6026-7.6884 8.3338-17.173 8.3338-9.4842 0-17.173-3.7312-17.173-8.3338s7.6884-8.3338 17.173-8.3338c9.4842 0 17.173 3.7312 17.173 8.3338z"/>
      <g id="g5107" transform="translate(281.2 -1.3957)">
        <g id="g5109">
          <path id="path5111" d="m215 678.43c0 19.922-24.464 36.071-54.643 36.071-30.178 0-54.643-16.15-54.643-36.071 0-19.922 24.464-36.071 54.643-36.071 30.178 0 54.643 16.15 54.643 36.071z" transform="matrix(.17865 -.044866 .044866 .17865 141.03 -42.965)" stroke="#000" stroke-width="5.4291" fill="#fff"/>
          <path id="path5113" d="m188.57 685.22c0 12.624-10.233 22.857-22.857 22.857s-22.857-10.233-22.857-22.857 10.233-22.857 22.857-22.857 22.857 10.233 22.857 22.857z" transform="matrix(.24161 -.060678 .060678 .24161 118.01 -84.336)" stroke="#3b6a00" stroke-width="2.299" fill="#529700"/>
          <path id="path5115" stroke="#000" transform="matrix(.13817 -.034699 .034699 .13817 152.96 -17.763)" d="m188.57 685.22c0 12.624-10.233 22.857-22.857 22.857s-22.857-10.233-22.857-22.857 10.233-22.857 22.857-22.857 22.857 10.233 22.857 22.857z"/>
        </g>
        <path id="path5117" transform="matrix(.17865 -.044866 .044866 .17865 140.2 -43.786)" fill="url(#radialGradient5119)" d="m215 678.43c0 19.922-24.464 36.071-54.643 36.071-30.178 0-54.643-16.15-54.643-36.071 0-19.922 24.464-36.071 54.643-36.071 30.178 0 54.643 16.15 54.643 36.071z"/>
      </g>
      <g id="g5141" transform="matrix(-1 0 0 1 709.38 -1.3957)">
        <g id="g5143">
          <path id="path5145" d="m215 678.43c0 19.922-24.464 36.071-54.643 36.071-30.178 0-54.643-16.15-54.643-36.071 0-19.922 24.464-36.071 54.643-36.071 30.178 0 54.643 16.15 54.643 36.071z" transform="matrix(.17865 -.044866 .044866 .17865 141.03 -42.965)" stroke="#000" stroke-width="5.4291" fill="#fff"/>
          <path id="path5147" d="m188.57 685.22c0 12.624-10.233 22.857-22.857 22.857s-22.857-10.233-22.857-22.857 10.233-22.857 22.857-22.857 22.857 10.233 22.857 22.857z" transform="matrix(.24161 -.060678 .060678 .24161 118.01 -84.336)" stroke="#3b6a00" stroke-width="2.299" fill="#529700"/>
          <path id="path5149" stroke="#000" transform="matrix(.13817 -.034699 .034699 .13817 152.96 -17.763)" d="m188.57 685.22c0 12.624-10.233 22.857-22.857 22.857s-22.857-10.233-22.857-22.857 10.233-22.857 22.857-22.857 22.857 10.233 22.857 22.857z"/>
        </g>
        <path id="path5151" transform="matrix(.17865 -.044866 .044866 .17865 140.2 -43.786)" fill="url(#radialGradient5119)" d="m215 678.43c0 19.922-24.464 36.071-54.643 36.071-30.178 0-54.643-16.15-54.643-36.071 0-19.922 24.464-36.071 54.643-36.071 30.178 0 54.643 16.15 54.643 36.071z"/>
      </g>
      <g id="g5177" transform="translate(365.99 -316.18)">
        <path id="path3975" stroke="#000" stroke-width="1.1323" fill="#c77304" d="m156.62 378.57c-5.7143-15.71-13.589-4.9389-28.326-4.6838-16.785 0.27716-19.095-7.4549-30.166 5.3981-2.1429-14.29 13.497-31.695 29.246-31.695 15.75 0 29.246 20.976 29.246 30.981z"/>
        <path id="path5169" transform="matrix(.69565 0 0 .96970 -14.669 -.20552)" fill="url(#radialGradient5048)" d="m215.16 368.24c0 4.6026-7.6884 8.3338-17.173 8.3338-9.4842 0-17.173-3.7312-17.173-8.3338s7.6884-8.3338 17.173-8.3338c9.4842 0 17.173 3.7312 17.173 8.3338z"/>
      </g>
      <path id="path5277" stroke="#000" stroke-width="1.0807" fill="#ffff5f" d="m464.52 71.025c0 18.912 13.093 34.283 29.241 34.283 16.148 0.00001 29.272-15.37 29.272-34.283h-0.37448c-3.1605 14.923-14.652 26.023-28.367 26.023s-25.238-11.099-28.398-26.023h-1.3731z"/>
      <g id="g5298" transform="translate(161.44 -256.58)">
        <path id="path5246" stroke="#000" fill="#ffff5f" d="m361.77 316.97h-58.589c0-16.171 13.124-29.294 29.294-29.294 16.171 0 29.294 13.124 29.294 29.294z"/>
        <path id="path5250" transform="translate(116.48 38.386)" fill="url(#radialGradient5303)" d="m216.17 270c0 3.3474-5.3141 6.0609-11.869 6.0609-6.5552 0-11.869-2.7136-11.869-6.0609 0-3.3474 5.3141-6.0609 11.869-6.0609 6.5552 0 11.869 2.7136 11.869 6.0609z"/>
        <rect id="rect5265" ry="3.0305" height="9.0914" width="71.216" stroke="#000" y="317.98" x="295.97" fill="#ffff5f"/>
      </g>
      <g id="g9166">
        <rect id="rect4026" transform="scale(-1,1)" ry="3.9307" height="23.584" width="7.8614" stroke="#000" y="103.76" x="-518.38" fill="#f00"/>
        <g id="g9148">
          <rect id="rect4022" ry="3.9307" transform="scale(-1,1)" height="12.229" width="14.849" stroke="#000" y="95.464" x="-532.35" fill="#5f5f5f"/>
          <g id="g9116">
            <rect id="rect4024" transform="scale(-1,1)" ry="3.9307" height="9.6084" width="19.217" stroke="#000" y="96.774" x="-522.31" fill="#5f5f5f"/>
            <path id="rect9103" fill="url(#radialGradient9142)" d="m522.29 94.83c-1.1766 0-2.2183 0.49847-2.9375 1.3125-0.0413-0.0013-0.0834 0-0.125 0h-11.344c-2.1776 0-3.9375 1.7286-3.9375 3.9063v1.75c-0.00001 2.1776 1.7599 3.9375 3.9375 3.9375h11.344c0.0425 0 0.0828-0.0299 0.125-0.0312 0.71929 0.81758 1.758 1.3438 2.9375 1.3438h7c2.1776 0.00001 3.9062-1.7599 3.9062-3.9375v-4.375c0-2.1776-1.7286-3.9062-3.9062-3.9062h-7z"/>
          </g>
        </g>
      </g>
      <path id="rect5016" stroke="#000" fill="#1b1bff" d="m501.84 116.75c6.5567 4.2494 14.401 3.3469 22.857 0v22.857c-6.2996 2.6389-12.819 4.838-22.857 0v-22.857z"/>
    </g>
  </g>
  <metadata>
    <rdf:RDF>
      <cc:Work>
        <dc:format>image/svg+xml</dc:format>
        <dc:type rdf:resource="http://purl.org/dc/dcmitype/StillImage"/>
        <cc:license rdf:resource="http://creativecommons.org/licenses/publicdomain/"/>
        <dc:publisher>
          <cc:Agent rdf:about="http://openclipart.org/">
            <dc:title>Openclipart</dc:title>
          </cc:Agent>
        </dc:publisher>
        <dc:title>village people construction worker</dc:title>
        <dc:date>2013-03-08T01:02:03</dc:date>
        <dc:description/>
        <dc:source>https://openclipart.org/detail/175687/face-plain-by-Nizips</dc:source>
        <dc:creator>
          <cc:Agent>
            <dc:title>Nizips</dc:title>
          </cc:Agent>
        </dc:creator>
        <dc:subject>
          <rdf:Bag>
            <rdf:li>construction</rdf:li>
            <rdf:li>worker</rdf:li>
            <rdf:li>hammer</rdf:li>
            <rdf:li>lazy</rdf:li>
            <rdf:li>sleepy</rdf:li>
            <rdf:li>hardhat</rdf:li>
          </rdf:Bag>
        </dc:subject>
      </cc:Work>
      <cc:License rdf:about="http://creativecommons.org/licenses/publicdomain/">
        <cc:permits rdf:resource="http://creativecommons.org/ns#Reproduction"/>
        <cc:permits rdf:resource="http://creativecommons.org/ns#Distribution"/>
        <cc:permits rdf:resource="http://creativecommons.org/ns#DerivativeWorks"/>
      </cc:License>
    </rdf:RDF>
  </metadata>
</svg>