<svg xmlns="http://www.w3.org/2000/svg" xmlns:xlink="http://www.w3.org/1999/xlink" version="1.1" id="Layer_1" x="0px" y="0px" viewBox="0 0 512 512" style="enable-background:new 0 0 512 512;" xml:space="preserve" width="512" height="512">
<g>
	<g>
		<path d="M0,0.001v511.999h89.591H512V89.591V0.001H0z M120.008,481.582v-47.98h78.398v-78.398h78.398v-78.398h78.398v-78.398    h78.398v-78.398h47.981v361.573H120.008z M481.583,89.59h-78.399v0.001v78.398h-78.398v78.398h-78.398v78.398h-78.398v78.398    H89.591v78.397H30.417V30.418h451.166V89.59z"/>
	</g>
</g>
<g>
	<g>
		<polygon points="96.794,58.965 96.794,89.382 169.602,89.382 54.294,204.69 75.802,226.198 191.11,110.89 191.11,183.698     221.527,183.698 221.527,58.965   "/>
	</g>
</g>
<g>
</g>
<g>
</g>
<g>
</g>
<g>
</g>
<g>
</g>
<g>
</g>
<g>
</g>
<g>
</g>
<g>
</g>
<g>
</g>
<g>
</g>
<g>
</g>
<g>
</g>
<g>
</g>
<g>
</g>
</svg>