<svg xmlns="http://www.w3.org/2000/svg" xmlns:xlink="http://www.w3.org/1999/xlink" version="1.1" x="0px" y="0px" viewBox="0 0 1000 1000" enable-background="new 0 0 1000 1000" xml:space="preserve" width="1000" height="1000">
<metadata> Svg Vector Icons : http://www.onlinewebfonts.com/icon </metadata>
<g><g><g><path d="M900.5,955.6c-2-0.8-195.6-86-246.1-212.2c-3.7-9.1-14.1-13.5-23.1-10c-12.5,4.8-305.4,114.7-506.2-113.6c7.3-65.1,67-533,287.1-571.6c46.5-8.1,205.5,1.2,228.4,19.9c6.4,49.5-0.8,60.2-0.6,60.2c-10.7,6.1-53.8,10.4-87.8,11.1c-6.2,0.1-11.8,3.4-15,8.7c-3.2,5.2-3.4,11.8-0.6,17.3c8.2,15.9,15.1,34.8,16.7,44.3c-42.4,12.1-118.7,18.6-165.3,8.7l-1.6-0.3c-16.2-3.7-28.7-9.3-34.5-17.5c-5.8-8.1-16.9-9.8-25-4.1c-8.1,5.7-9.9,17-4.2,25c10.1,14.1,26.8,23.2,46.7,29.1c6.9,32.3,25.5,134.9-0.8,211.2l-0.5,8.7c-14.9,26.1-24,55.8-24,87.9c0,9.8,8,17.9,17.9,17.9c9.8,0,17.9-8,17.9-17.9c0-79.2,64.3-143.5,143.5-143.5c79.1,0,143.5,64.4,143.5,143.5c0,9.8,8.1,17.9,17.9,17.9c9.9,0,17.9-8,17.9-17.9c0-38.1-12.2-73.3-32.5-102.4c12.6-24.1,70-118.8,185.4-92c9.7,2.2,19.2-3.7,21.5-13.4c2.2-9.7-3.7-19.2-13.4-21.5c-123-28.5-193.1,58.9-218.1,98.8c-32.1-30.1-74.8-48.8-122.1-48.8c-40.9,0-78.1,14.2-108.3,37.4c7.6-61.5-1.1-124.4-7.6-158.8c63.5,6.3,139.6-8.1,164.2-16.3c7-2.3,12.5-7.5,15.4-14.5c5.4-13.3,0.1-34.4-7.3-52.9c25.9-1.6,61.8-5.4,78-14.7c20-11.3,25.5-41.8,17.9-98.6c-0.7-5.6-3.7-13.8-13.6-21.1C620.7,9.4,447,6,406.2,13.2C143.9,59,91,601.1,88.8,624.2c-0.4,4.8,1.1,9.6,4.2,13.2c189.9,223.1,465.8,156.4,535.1,134.9c63.8,130.7,250,212.6,258.2,216.2l7.1,1.5c6.9,0,13.5-4,16.4-10.8C913.6,970,909.5,959.6,900.5,955.6z"/></g></g><g/><g/><g/><g/><g/><g/><g/><g/><g/><g/><g/><g/><g/><g/><g/></g>
</svg>