<svg xmlns="http://www.w3.org/2000/svg" xmlns:xlink="http://www.w3.org/1999/xlink" version="1.1" id="Layer_1" x="0px" y="0px" viewBox="0 0 512 512" style="enable-background:new 0 0 512 512;" xml:space="preserve" width="512" height="512">
<g>
	<g>
		<path d="M102.4,353.745c-4.655-5.818-13.964-5.818-18.618,0s-48.873,64-48.873,98.909c0,40.727,30.255,59.345,58.182,59.345    c36.073,0,58.182-22.109,58.182-59.345C151.273,417.745,107.055,359.564,102.4,353.745z M93.091,488.727    c-5.818,0-34.909-1.164-34.909-36.073c0-17.455,18.618-50.036,34.909-72.146C109.382,403.782,128,436.364,128,452.655    C128,482.909,109.382,488.727,93.091,488.727z"/>
	</g>
</g>
<g>
	<g>
		<path d="M325.818,151.273c-6.982,0-11.636,4.655-11.636,11.636v30.255l-8.145,8.145c-4.655,4.655-12.8,8.146-19.782,8.146h-37.236    c-6.982,0-15.127-3.491-19.782-8.146L217.6,189.673c-2.327-2.327-4.655-3.491-8.145-3.491h-58.182    c-19.782,0-34.909,15.127-34.909,34.909v58.182H69.818v-58.182c0-45.382,36.073-81.455,81.455-81.455h11.636    c6.982,0,11.636-4.655,11.636-11.636s-4.655-11.636-11.636-11.636h-11.636c-58.182,0-104.727,46.545-104.727,104.727v58.182    c-6.982,0-11.636,4.655-11.636,11.636s4.655,11.636,11.636,11.636h93.091c6.982,0,11.636-4.655,11.636-11.636    s-4.655-11.636-11.636-11.636v-58.182c0-6.982,4.655-11.636,11.636-11.636H204.8l8.146,8.146    c9.309,9.309,22.109,15.127,36.073,15.127h37.236c13.964,0,26.764-5.818,36.073-15.127l11.636-11.636    c2.327-2.327,3.491-4.655,3.491-8.145v-34.909C337.455,155.927,332.8,151.273,325.818,151.273z"/>
	</g>
</g>
<g>
	<g>
		<path d="M471.273,59.345c-3.491-2.327-8.146-2.327-11.636,0l-50.036,25.6c-12.8,6.982-22.109,18.618-24.436,31.418h-54.691    l-8.146-8.145c-9.309-9.309-22.109-15.127-36.073-15.127h-6.982V58.182c0-6.982,4.655-11.636,11.636-11.636h34.909    c6.982,0,11.636-4.655,11.636-11.636c0-6.982,4.655-11.636,11.636-11.636c6.982,0,11.636,4.655,11.636,11.636    c0,6.982-5.818,11.636-11.636,11.636c-6.982,0-11.636,4.655-11.636,11.636s4.655,11.636,11.636,11.636    c18.618,0,34.909-16.291,34.909-34.909C384,15.127,368.873,0,349.091,0c-15.127,0-27.927,9.309-32.582,23.273h-96.582    C215.273,9.309,202.473,0,187.345,0c-19.782,0-34.909,15.127-34.909,34.909c0,19.782,15.127,34.909,34.909,34.909    c6.982,0,11.636-4.655,11.636-11.636s-4.655-11.636-11.636-11.636c-6.982,0-11.636-4.655-11.636-11.636    c0-6.982,4.655-11.636,11.636-11.636c6.982,0,11.636,4.655,11.636,11.636c0,6.982,4.655,11.636,11.636,11.636h34.909    c6.982,0,11.636,4.655,11.636,11.636v34.909h-6.982c-13.964,0-26.764,5.818-36.073,15.127l-11.636,11.636    c-3.491,2.327-4.655,4.655-4.655,8.145v34.909c0,6.982,4.655,11.636,11.636,11.636c6.982,0,11.636-4.655,11.636-11.636v-30.255    l8.145-8.145c4.655-4.655,12.8-8.145,19.782-8.145h37.236c6.982,0,15.127,3.491,19.782,8.145l11.636,11.636    c2.327,2.327,4.655,3.491,8.145,3.491h69.818c6.982,0,11.636-4.655,11.636-11.636v-1.164c0-9.309,4.655-16.291,12.8-20.945    l33.745-17.455v148.945l-33.745-16.291c-8.145-3.491-12.8-11.636-12.8-20.945v-2.327c0-6.982-4.655-11.636-11.636-11.636h-23.273    c-6.982,0-11.636,4.655-11.636,11.636s4.655,11.636,11.636,11.636h12.8c3.491,13.964,11.636,25.6,24.436,31.418l50.036,25.6    c2.327,1.164,3.491,1.164,5.818,1.164c2.327,0,4.655-1.164,5.818-1.164c3.491-2.327,5.818-5.818,5.818-10.473V69.818    C477.091,66.327,474.764,61.673,471.273,59.345z"/>
	</g>
</g>
<g>
</g>
<g>
</g>
<g>
</g>
<g>
</g>
<g>
</g>
<g>
</g>
<g>
</g>
<g>
</g>
<g>
</g>
<g>
</g>
<g>
</g>
<g>
</g>
<g>
</g>
<g>
</g>
<g>
</g>
</svg>