<svg xmlns="http://www.w3.org/2000/svg" xmlns:xlink="http://www.w3.org/1999/xlink" version="1.1" id="Capa_1" x="0px" y="0px" viewBox="0 0 59.998 59.998" style="enable-background:new 0 0 59.998 59.998;" xml:space="preserve" width="50" height="50">
<path d="M59.129,49.933c-3.954-7.817-4.88-14.927-5.697-21.199c-0.373-2.867-0.726-5.576-1.333-8.133  c-1.467-6.181-4.786-9.937-9.864-11.16c-0.656-0.159-1.326-0.239-1.99-0.239c-2.456,0-4.709,1.117-6.244,2.869V6.499v-4h-8v4v5.571  c-1.535-1.752-3.788-2.869-6.244-2.869c-0.664,0-1.334,0.08-1.99,0.239c-5.077,1.224-8.396,4.979-9.864,11.16  c-0.616,2.593-0.972,5.458-1.349,8.492C5.732,35.702,4.8,43.193,0.872,50.961c-0.992,1.962-1.136,3.467-0.438,4.601  c1.047,1.703,3.663,1.938,6.335,1.938c0.952,0,1.969-0.033,3.011-0.067l0.625-0.021c4.333-0.137,7.89-0.784,10.719-1.937  c-0.042,0.005-0.079,0.025-0.122,0.025c-0.552,0-1-0.448-1-1s0.448-1,1-1s1,0.448,1,1c0,0.314-0.154,0.583-0.38,0.766  c4-1.77,6.436-4.629,7.355-8.629c0.697-3.035,0.152-7.095-0.374-11.02C28.292,33.314,28,31.141,28,29.412  c0-1.099,0.894-1.992,2.009-1.992c1.098,0,1.991,0.894,1.991,1.992c0,1.729-0.292,3.902-0.601,6.204  c-0.526,3.925-1.071,7.984-0.374,11.02c1.582,6.886,7.656,10.401,18.571,10.747c0.571,0.019,1.138,0.029,1.692,0.029  c3.098,0,6.829-0.286,8.199-2.515C60.272,53.623,60.151,51.953,59.129,49.933z M3,55.499c-0.552,0-1-0.448-1-1s0.448-1,1-1  s1,0.448,1,1S3.553,55.499,3,55.499z M6,52.499c-0.552,0-1-0.448-1-1s0.448-1,1-1s1,0.448,1,1S6.553,52.499,6,52.499z M6,46.499  c-0.552,0-1-0.448-1-1s0.448-1,1-1s1,0.448,1,1S6.553,46.499,6,46.499z M9,55.499c-0.552,0-1-0.448-1-1s0.448-1,1-1s1,0.448,1,1  S9.553,55.499,9,55.499z M9,49.499c-0.552,0-1-0.448-1-1s0.448-1,1-1s1,0.448,1,1S9.553,49.499,9,49.499z M9,43.499  c-0.552,0-1-0.448-1-1s0.448-1,1-1s1,0.448,1,1S9.553,43.499,9,43.499z M9,37.499c-0.552,0-1-0.448-1-1s0.448-1,1-1s1,0.448,1,1  S9.553,37.499,9,37.499z M9,31.499c-0.552,0-1-0.448-1-1s0.448-1,1-1s1,0.448,1,1S9.553,31.499,9,31.499z M9,25.499  c-0.552,0-1-0.448-1-1s0.448-1,1-1s1,0.448,1,1S9.553,25.499,9,25.499z M45,11.499c0.552,0,1,0.448,1,1s-0.448,1-1,1s-1-0.448-1-1  S44.448,11.499,45,11.499z M45,17.499c0.552,0,1,0.448,1,1s-0.448,1-1,1s-1-0.448-1-1S44.448,17.499,45,17.499z M45,23.499  c0.552,0,1,0.448,1,1s-0.448,1-1,1s-1-0.448-1-1S44.448,23.499,45,23.499z M39,11.499c0.552,0,1,0.448,1,1s-0.448,1-1,1  s-1-0.448-1-1S38.448,11.499,39,11.499z M36,14.499c0.552,0,1,0.448,1,1c0,0.552-0.448,1-1,1s-1-0.448-1-1  C35,14.947,35.448,14.499,36,14.499z M32,10.499h-4v-2h4V10.499z M32,12.499v2h-4v-2H32z M29.616,18.374  c-0.069-0.014-0.133-0.038-0.199-0.059c-0.053-0.016-0.108-0.028-0.159-0.048c-0.087-0.035-0.168-0.081-0.249-0.128  c-0.025-0.014-0.052-0.025-0.077-0.04c-0.086-0.055-0.165-0.119-0.241-0.186c-0.016-0.014-0.033-0.025-0.049-0.039  c-0.067-0.063-0.127-0.134-0.186-0.206c-0.021-0.025-0.045-0.048-0.064-0.074c-0.039-0.052-0.069-0.11-0.103-0.166  c-0.034-0.057-0.072-0.112-0.1-0.172c-0.009-0.018-0.014-0.038-0.022-0.056c-0.043-0.099-0.081-0.201-0.107-0.307  c-0.001-0.003-0.002-0.006-0.003-0.01c-0.021-0.088-0.029-0.18-0.039-0.271c-0.004-0.038-0.01-0.075-0.012-0.114h3.987  c-0.001,0.039-0.008,0.076-0.012,0.114c-0.009,0.092-0.017,0.184-0.039,0.271c-0.001,0.003-0.002,0.006-0.003,0.01  c-0.026,0.106-0.064,0.208-0.107,0.307c-0.008,0.018-0.013,0.038-0.022,0.056c-0.028,0.06-0.066,0.115-0.1,0.172  c-0.034,0.055-0.064,0.114-0.103,0.165c-0.019,0.026-0.043,0.049-0.064,0.074c-0.059,0.072-0.118,0.143-0.186,0.206  c-0.015,0.014-0.033,0.025-0.049,0.039c-0.077,0.067-0.156,0.131-0.241,0.186c-0.024,0.015-0.052,0.026-0.076,0.04  c-0.081,0.047-0.162,0.093-0.249,0.128c-0.051,0.02-0.106,0.032-0.159,0.048c-0.066,0.021-0.13,0.045-0.199,0.059  c-0.125,0.024-0.253,0.038-0.384,0.038S29.741,18.398,29.616,18.374z M28,4.499h4v2h-4V4.499z M24,14.499c0.552,0,1,0.448,1,1  c0,0.552-0.448,1-1,1s-1-0.448-1-1C23,14.947,23.448,14.499,24,14.499z M21,11.499c0.552,0,1,0.448,1,1s-0.448,1-1,1s-1-0.448-1-1  S20.448,11.499,21,11.499z M15,11.499c0.552,0,1,0.448,1,1s-0.448,1-1,1s-1-0.448-1-1S14.448,11.499,15,11.499z M15,17.499  c0.552,0,1,0.448,1,1s-0.448,1-1,1s-1-0.448-1-1S14.448,17.499,15,17.499z M15,23.499c0.552,0,1,0.448,1,1s-0.448,1-1,1  s-1-0.448-1-1S14.448,23.499,15,23.499z M12,14.499c0.552,0,1,0.448,1,1c0,0.552-0.448,1-1,1s-1-0.448-1-1  C11,14.947,11.448,14.499,12,14.499z M12,20.499c0.552,0,1,0.448,1,1s-0.448,1-1,1s-1-0.448-1-1S11.448,20.499,12,20.499z   M12,26.499c0.552,0,1,0.448,1,1s-0.448,1-1,1s-1-0.448-1-1S11.448,26.499,12,26.499z M12,32.499c0.552,0,1,0.448,1,1s-0.448,1-1,1  s-1-0.448-1-1S11.448,32.499,12,32.499z M12,52.499c-0.552,0-1-0.448-1-1s0.448-1,1-1s1,0.448,1,1S12.553,52.499,12,52.499z   M12,46.499c-0.552,0-1-0.448-1-1s0.448-1,1-1s1,0.448,1,1S12.553,46.499,12,46.499z M15,55.499c-0.552,0-1-0.448-1-1s0.448-1,1-1  s1,0.448,1,1S15.553,55.499,15,55.499z M15,49.499c-0.552,0-1-0.448-1-1s0.448-1,1-1s1,0.448,1,1S15.553,49.499,15,49.499z   M18,52.499c-0.552,0-1-0.448-1-1s0.448-1,1-1s1,0.448,1,1S18.553,52.499,18,52.499z M18,46.499c-0.552,0-1-0.448-1-1s0.448-1,1-1  s1,0.448,1,1S18.553,46.499,18,46.499z M18,40.499c-0.552,0-1-0.448-1-1s0.448-1,1-1s1,0.448,1,1S18.553,40.499,18,40.499z   M18,34.499c-0.552,0-1-0.448-1-1s0.448-1,1-1s1,0.448,1,1S18.553,34.499,18,34.499z M21,49.499c-0.552,0-1-0.448-1-1s0.448-1,1-1  s1,0.448,1,1S21.553,49.499,21,49.499z M21,43.499c-0.552,0-1-0.448-1-1s0.448-1,1-1s1,0.448,1,1S21.553,43.499,21,43.499z   M21,37.499c-0.552,0-1-0.448-1-1s0.448-1,1-1s1,0.448,1,1S21.553,37.499,21,37.499z M21,31.499c-0.552,0-1-0.448-1-1s0.448-1,1-1  s1,0.448,1,1S21.553,31.499,21,31.499z M24,52.499c-0.552,0-1-0.448-1-1s0.448-1,1-1s1,0.448,1,1S24.553,52.499,24,52.499z   M24,46.499c-0.552,0-1-0.448-1-1s0.448-1,1-1s1,0.448,1,1S24.553,46.499,24,46.499z M24,40.499c-0.552,0-1-0.448-1-1s0.448-1,1-1  s1,0.448,1,1S24.553,40.499,24,40.499z M24,34.499c-0.552,0-1-0.448-1-1s0.448-1,1-1s1,0.448,1,1S24.553,34.499,24,34.499z   M24,28.499c-0.552,0-1-0.448-1-1s0.448-1,1-1s1,0.448,1,1S24.553,28.499,24,28.499z M27,49.499c-0.552,0-1-0.448-1-1s0.448-1,1-1  s1,0.448,1,1S27.553,49.499,27,49.499z M27,43.499c-0.552,0-1-0.448-1-1s0.448-1,1-1s1,0.448,1,1S27.553,43.499,27,43.499z   M27,37.499c-0.552,0-1-0.448-1-1s0.448-1,1-1s1,0.448,1,1S27.553,37.499,27,37.499z M27,31.499c-0.552,0-1-0.448-1-1s0.448-1,1-1  s1,0.448,1,1S27.553,31.499,27,31.499z M33,49.499c-0.552,0-1-0.448-1-1s0.448-1,1-1s1,0.448,1,1S33.553,49.499,33,49.499z   M33,43.499c-0.552,0-1-0.448-1-1s0.448-1,1-1s1,0.448,1,1S33.553,43.499,33,43.499z M33,37.499c-0.552,0-1-0.448-1-1s0.448-1,1-1  s1,0.448,1,1S33.553,37.499,33,37.499z M33,31.499c-0.552,0-1-0.448-1-1s0.448-1,1-1s1,0.448,1,1S33.553,31.499,33,31.499z   M36,52.499c-0.552,0-1-0.448-1-1s0.448-1,1-1s1,0.448,1,1S36.553,52.499,36,52.499z M36,46.499c-0.552,0-1-0.448-1-1s0.448-1,1-1  s1,0.448,1,1S36.553,46.499,36,46.499z M36,40.499c-0.552,0-1-0.448-1-1s0.448-1,1-1s1,0.448,1,1S36.553,40.499,36,40.499z   M36,34.499c-0.552,0-1-0.448-1-1s0.448-1,1-1s1,0.448,1,1S36.553,34.499,36,34.499z M36,28.499c-0.552,0-1-0.448-1-1s0.448-1,1-1  s1,0.448,1,1S36.553,28.499,36,28.499z M39,49.499c-0.552,0-1-0.448-1-1s0.448-1,1-1s1,0.448,1,1S39.553,49.499,39,49.499z   M39,43.499c-0.552,0-1-0.448-1-1s0.448-1,1-1s1,0.448,1,1S39.553,43.499,39,43.499z M39,37.499c-0.552,0-1-0.448-1-1s0.448-1,1-1  s1,0.448,1,1S39.553,37.499,39,37.499z M39,31.499c-0.552,0-1-0.448-1-1s0.448-1,1-1s1,0.448,1,1S39.553,31.499,39,31.499z   M42,52.499c-0.552,0-1-0.448-1-1s0.448-1,1-1s1,0.448,1,1S42.553,52.499,42,52.499z M42,46.499c-0.552,0-1-0.448-1-1s0.448-1,1-1  s1,0.448,1,1S42.553,46.499,42,46.499z M42,40.499c-0.552,0-1-0.448-1-1s0.448-1,1-1s1,0.448,1,1S42.553,40.499,42,40.499z   M42,34.499c-0.552,0-1-0.448-1-1s0.448-1,1-1s1,0.448,1,1S42.553,34.499,42,34.499z M45,55.499c-0.552,0-1-0.448-1-1s0.448-1,1-1  s1,0.448,1,1S45.553,55.499,45,55.499z M45,49.499c-0.552,0-1-0.448-1-1s0.448-1,1-1s1,0.448,1,1S45.553,49.499,45,49.499z   M46,41.499c-0.553,0-1-0.447-1-1c0-9.374-6.729-17-15-17s-15,7.626-15,17c0,0.553-0.447,1-1,1s-1-0.447-1-1  c0-8.188,4.668-15.163,11.178-17.828C19.893,21.377,17,18.688,17,15.499c0-0.553,0.447-1,1-1s1,0.447,1,1c0,3.252,5.037,6,11,6  s11-2.748,11-6c0-0.553,0.447-1,1-1s1,0.447,1,1c0,3.189-2.892,5.878-7.178,7.172C42.333,25.336,47,32.31,47,40.499  C47,41.052,46.553,41.499,46,41.499z M17,21.499c0-0.552,0.448-1,1-1s1,0.448,1,1s-0.448,1-1,1S17,22.051,17,21.499z M43,21.499  c0,0.552-0.448,1-1,1s-1-0.448-1-1s0.448-1,1-1S43,20.947,43,21.499z M48,52.499c-0.552,0-1-0.448-1-1s0.448-1,1-1s1,0.448,1,1  S48.553,52.499,48,52.499z M48,46.499c-0.552,0-1-0.448-1-1s0.448-1,1-1s1,0.448,1,1S48.553,46.499,48,46.499z M48,34.499  c-0.552,0-1-0.448-1-1s0.448-1,1-1s1,0.448,1,1S48.553,34.499,48,34.499z M48,28.499c-0.552,0-1-0.448-1-1s0.448-1,1-1s1,0.448,1,1  S48.553,28.499,48,28.499z M48,22.499c-0.552,0-1-0.448-1-1s0.448-1,1-1s1,0.448,1,1S48.553,22.499,48,22.499z M48,16.499  c-0.552,0-1-0.448-1-1c0-0.552,0.448-1,1-1s1,0.448,1,1C49,16.051,48.553,16.499,48,16.499z M51,55.499c-0.552,0-1-0.448-1-1  s0.448-1,1-1s1,0.448,1,1S51.553,55.499,51,55.499z M51,49.499c-0.552,0-1-0.448-1-1s0.448-1,1-1s1,0.448,1,1  S51.553,49.499,51,49.499z M51,43.499c-0.552,0-1-0.448-1-1s0.448-1,1-1s1,0.448,1,1S51.553,43.499,51,43.499z M51,37.499  c-0.552,0-1-0.448-1-1s0.448-1,1-1s1,0.448,1,1S51.553,37.499,51,37.499z M51,31.499c-0.552,0-1-0.448-1-1s0.448-1,1-1s1,0.448,1,1  S51.553,31.499,51,31.499z M51,25.499c-0.552,0-1-0.448-1-1s0.448-1,1-1s1,0.448,1,1S51.553,25.499,51,25.499z M54,52.499  c-0.552,0-1-0.448-1-1s0.448-1,1-1s1,0.448,1,1S54.553,52.499,54,52.499z M54,46.499c-0.552,0-1-0.448-1-1s0.448-1,1-1s1,0.448,1,1  S54.553,46.499,54,46.499z M57,55.499c-0.552,0-1-0.448-1-1s0.448-1,1-1s1,0.448,1,1S57.553,55.499,57,55.499z"/>
<g>
</g>
<g>
</g>
<g>
</g>
<g>
</g>
<g>
</g>
<g>
</g>
<g>
</g>
<g>
</g>
<g>
</g>
<g>
</g>
<g>
</g>
<g>
</g>
<g>
</g>
<g>
</g>
<g>
</g>
</svg>