<svg xmlns="http://www.w3.org/2000/svg" xmlns:xlink="http://www.w3.org/1999/xlink" version="1.1" id="Layer_1" x="0px" y="0px" viewBox="0 0 748.065 1730.721" enable-background="new 0 0 748.065 1730.721" xml:space="preserve" width="50" height="50">
<g>
	<path d="M167.117,1665.267c0.41-2.06-0.762-2.396-11.568-26.389c-8.723-19.368-11.014-31.359-15.567-48.22   c-4.886-18.094-117.264-121.718-67.141-290.022c25.287-84.91,73.769-93.174,107.018-157.167   c21.498-41.375,8.526-36.157,6.848-77.987c-0.167-4.161-1.924-8.022-1.919-12.178c-4.507-5.205-0.91-12.707-2.943-15.464   c-4.728-6.409-6.251-49.847-6.134-50.847c0.117-1,13.876-115.236,10.526-122.311c-0.47,1.549-0.363,2.742,0.168,3.909   c-4.894-0.701-0.125,5.614-3.021,8.393c-0.091-3.528-3.055-5.825-2.424-9.22c0.176-0.949-0.289-0.999-0.838-1.467   c-5.792-4.937-1.043-7.83-6.204-15.089c-1.862,2.017,0.052,3.937-0.377,6.104c-1.703-1.458-2.947-2.626-2.981-4.675   c-0.108-6.431-2.114-12.569-2.956-18.888c-1.698-12.742-4.656-9.032-5.084-16.052c-3.313,2.104,0.705,4.189-1.911,4.759   c-2.026,0.442-1.321-1.859-3.788-13.915c-1.333,0.272-0.654,1.606-1.671,2.084c0.045-1.375-0.268-2.599-1.34-3.279   c-1.933-1.226-0.07-2.07,0.337-3.065c-1.583-0.577-3.074-0.788-4.805-0.674c-0.117-4.479-1.756-8.781-1.206-13.313   c-3.108-2.126-0.122-5.972-2.347-8.376c-0.235-0.254-0.187-0.826-0.171-1.247c0.253-6.289-2.025-12.413-1.222-18.737   c-2.244-2.643-1.205-5.42-0.887-8.446c0.355-3.378-0.678-6.924-0.392-10.429c0.066-0.813-0.503-1.29-0.678-1.939   c-1.957-7.233-1.915-15.968-0.982-23.379c0.161-1.277,0.353-2.622-0.138-3.811s-1.958-2.08-3.09-1.47   c-0.997,0.538-1.213,1.891-1.031,3.01c0.181,1.118,0.639,2.214,0.532,3.342c-0.107,1.128-1.12,2.298-2.212,1.994   c-2.237-0.897,1.447-21.559,1.83-23.808c2.213-13.005,4.229-25.958,5.882-39.041c1.725-13.654,2.595-27.237,4.536-40.737   c1.126-7.78,2.35-15.546,3.673-23.294c3.973-23.275,9.2-46.203,13.337-69.41c5.153-28.902,10.9-57.482,17.063-86.164   c6.333-29.473,12.521-58.978,18.747-88.474c5.766-27.316,11.494-54.643,17.491-81.91c1.673-7.605,3.26-15.253,5.253-22.783   c27.771-104.915,64.689-122.804,85.238-145.987c10.052-11.341,39.748-22.581,47.417-30.509c3.055-3.158,5.595-1.239,12.177-2.915   c3.32-0.845,6.389,1.081,9.66,1.111c0.819,0.007,1.706,0.613,2.491,0.189c7.041-3.804,31.291,0.133,36.355,1.293   c9.022,2.068,17.555,9.76,21.855,12.172c4.783,2.682,0.922,4.974,9.039,7.753c14.031,4.804,9.406,7.207,17.422,7.197   c22.311-0.029,63.34,4.844,72.61,24.352c1.294,2.722,4.208,4.85,5.207,8.04c2.704,8.628,5.165,17.299,4.342,26.505   c-0.304,3.396-3.243,6.569,0.039,11.481c1.228,1.838,2.36,4.885-0.069,7.429c-1.213,1.27-0.485,2.975,0.002,4.446   c6.332,19.131,9.036,17.623,11.851,76.9c0.212,4.461-4.032,7.866-7.634,15.033c-3.711,7.383,3.248,5.302,4.183,7.734   c-1.119,1.006-2.544,0.963-3.919,1.241c-21.656,4.382,64.945,77.526,7.945,84.547c-5.179,0.638-7.334,2.357-8.636,7.315   c-0.94,3.581-1.657,7.094-0.864,10.91c0.956,4.601-1.731,10.162-6.04,12.192c-2.78,1.31-3.841,2.615-3.325,5.764   c1.449,8.848-8.421,5.749-15.013,19.124c-1.767,3.584-0.239,5.972-1.834,15.604c-3.322,20.055-24.532,19.346-43.817,22.903   c-17.721,3.268-19.166,1.673-22.99,4.823c-1.201,0.989-5.705-0.068-4.265,5.222c-15.127-7.771-7.449,13.291-6.266,23.74   c5.8,51.216,25.079,95.45,27.678,97.878c0.971,0.907,2.444,2.663,1.033,4.569c-1.887,2.55,3.975,0.754,2.098,3.99   c-1.466,2.526,8.033,12.503,9.043,13.091c4.306,2.51,7.906,5.984,12.056,8.708c2.141,1.405,2.073,1.508,2.48,4.861   c-0.799-0.211-1.566-0.414-2.599-0.686c-0.009,4.8,10.175,2.725,3.736,8.634c-3.378-3.167-7.724-4.664-12.069-6.512   c53.636,69.339,53.529,58.128,92.83,99.17c21.744,22.707,25,40.44,26.663,43.58c8.209,15.498,20.655,66.46-49.668,113.228   c-1.37,0.911-2.857,1.944-3.833,3.179c37.929,38.799,48.399,46.148,64.692,64.507c66.725,75.187,55.573,137.761,62.841,149.432   c2.736,4.393,5.544,14.483,4.298,18.372c-2.775,8.664-8.837,70.234-35.016,111.409c-33.527,52.731-76.16,76.577-75.345,75.577   c-6.553,8.045-25.997,11.892-33.809,23.662c-3.896,5.87-6.449,3.292-7.887,9.616c-0.841,3.701-20.722,44.856-35.259,58.563   c-6.353,5.99-4.188,11.228-6.421,36.624c-7.02,79.809,5.926,51.524-13.631,199.348c-1.16,8.768-3.871,17.274-4.467,26.156   c-0.168,2.505-1.384,4.912-0.873,7.517C372.411,1665.267,269.764,1665.267,167.117,1665.267z M442.997,500.772   c0.954-3.959,0.059-7.611-1.847-11.095c-0.35,3.851,1.86,7.272,1.864,11.064c0.74,9.984,3.611,19.46,6.791,28.87   c-0.018-3.971-1.183-7.782-1.568-11.64c-0.565-5.657-2.838-10.875-3.457-16.472C444.674,500.546,443.965,500.009,442.997,500.772z    M426.267,532.586c-1.003,2.446-0.774,3.873-0.134,5.401c1.036,2.472,1.422,5.184,2.19,7.696c1.047,3.423,1.474,7.626,5.613,9.386   c0.81,0.344,1.429,1.138,1.515,1.969c0.447,4.327,3.697,6.993,6.202,9.897c6.557,7.603,13.447,14.926,20.368,22.204   c2.38,2.502,5.245,4.543,8.17,7.033c-0.675-5.193-1.326-6.793-4.151-9.842c-0.591-0.638-1.082-1.285-1.482-2.041   c-3.86-7.292-6.993-14.945-9.905-22.611c-3.222-8.481-6.82-16.841-9.562-25.497c-1.542-4.867-3.606-9.527-5.085-14.433   c-1.675-5.554-2.641-11.324-4.976-16.705c-0.784-1.807-1.303-3.814-1.682-5.874c-0.608-3.307-0.763-7.057-3.439-10.222   c-1.215,5.434-0.028,10.466-0.102,15.484c-0.016,1.104,0.674,2.179-0.001,3.321c-1.225,2.072-0.393,4.1,0.553,5.925   c0.472,0.91,0.876,1.691,0.882,2.732c0.04,6.609,0.176,13.211,1.729,19.692c0.109,0.457,0.324,1.158-0.385,1.483   C430.093,536.77,427.735,535.784,426.267,532.586z M444.278,585.128c0.131,3.198,1.779,5.626,3.641,7.907   c4.945,6.056,9.957,12.057,14.927,18.092c1.17,1.42,2.335,2.816,2.736,4.734c0.429,2.052,2.33,3.165,3.533,4.713   c0.733,0.943,2.224,0.447,3.143-0.186c1.275-0.878,0.193-1.755-0.358-2.487c-1.706-2.268-3.823-4.268-5.051-6.846   c-5.027-10.556-14.271-17.502-21.927-25.807C444.846,585.167,444.65,585.193,444.278,585.128z M441.027,485.724   c0.22-3.82-2.002-6.658-3.692-9.719C437.158,479.77,439.784,482.495,441.027,485.724z M458.896,564.06   c0.22,1.865,0.674,2.984,2.587,4.503C460.691,566.522,460.661,565.206,458.896,564.06z M139.681,703.223   c-0.652,0.267-0.859,0.883-0.739,1.592c0.109,0.645,0.618,0.818,1.209,0.699c0.827-0.166,1.111-0.667,0.784-1.456   C140.726,703.558,140.467,703.084,139.681,703.223z M424.458,526.439c0.029,1.018-0.386,2.153,0.682,2.956   C425.455,528.312,425.526,527.287,424.458,526.439z M139.654,708.486c-0.311,0.189-0.49,0.236-0.507,0.318   c-0.164,0.764-1.032,1.308-0.715,2.194c0.047,0.132,0.504,0.257,0.678,0.179c0.923-0.415,0.862-1.259,0.796-2.079   C139.896,708.972,139.809,708.853,139.654,708.486z M455.976,551.474c0.553-1.745,0.045-2.596-1.077-3.464   C454.453,549.497,455.121,550.319,455.976,551.474z M454.316,543.128c-0.12-0.421-0.361-0.725-0.816-0.506   c-0.194,0.093-0.381,0.402-0.396,0.625c-0.031,0.459,0.323,0.758,0.729,0.737C454.301,543.96,454.341,543.522,454.316,543.128z"/>
</g>
</svg>