<?xml version="1.0" encoding="UTF-8" standalone="no"?>
<svg
   version="1.1"
   id="Layer_1"
   x="0px"
   y="0px"
   width="260px"
   height="221px"
   viewBox="0 0 260 221"
   enable-background="new 0 0 260 221"
   xml:space="preserve"
   sodipodi:docname="Pasted Image 20220922124444_332.svg"
   inkscape:version="1.2.1 (9c6d41e410, 2022-07-14, custom)"
   xmlns:inkscape="http://www.inkscape.org/namespaces/inkscape"
   xmlns:sodipodi="http://sodipodi.sourceforge.net/DTD/sodipodi-0.dtd"
   xmlns="http://www.w3.org/2000/svg"
   xmlns:svg="http://www.w3.org/2000/svg"><defs
   id="defs633" /><sodipodi:namedview
   id="namedview631"
   pagecolor="#ffffff"
   bordercolor="#000000"
   borderopacity="0.25"
   inkscape:showpageshadow="2"
   inkscape:pageopacity="0.0"
   inkscape:pagecheckerboard="0"
   inkscape:deskcolor="#d1d1d1"
   showgrid="false"
   inkscape:zoom="4.6470588"
   inkscape:cx="129.97468"
   inkscape:cy="110.5"
   inkscape:window-width="1698"
   inkscape:window-height="1251"
   inkscape:window-x="1069"
   inkscape:window-y="452"
   inkscape:window-maximized="1"
   inkscape:current-layer="Layer_1" />
<path
   d="m 250.94612,3.6785722 c -4.123,-6.013 -10.932,-9.473 -18.222,-9.277 l -160.060998,4.478 c -17.581,0.46499999 -33.817,7.853 -45.716,20.8039998 -11.9,12.951 -17.8909996,29.752 -16.87,47.31 l 0.857,14.746 c 0.926,15.952 0.05,32.027998 -2.6069996,47.780998 l -9.29599997,55.119 c -1.70300003,10.1 3.29299997,19.994 12.45099957,24.58 11.119,5.568 24.071,-0.191 29.053,-6.906 l 6.938,-9.356 c 6.741,4.656 15.303,6.65 23.954,4.831 14.588,-3.068 24.594,-15.945 24.579,-30.284 10e-4,0 0.007,-0.003 0.007,-0.003 0,-2.282 0.001,-11.231 0.675,-22.023 15.251998,-8.746 34.632998,-19.343 50.354998,-26.251 -1.472,7.316 -3.803,15.112 -6.332,23.563 -6.2,20.72 -13.204,41.181 -10.67,68.862 h 13.837 c -2.622,-25.58 4.09,-45.082 10.026,-64.914 3.437,-11.485 6.73,-22.494 7.981,-33.175 1.336,-0.399 2.597,-0.732 3.77,-0.988 28.77,-6.29 55.129,-32.098998 67.447,-53.415998 4.942,-8.554 19.928,-35.14 19.928,-35.14 2.818,-6.725 2.038,-14.3279998 -2.084,-20.3409998 z M 148.40712,110.11157 c -15.449,6.358 -34.92,16.765 -50.963998,25.853 0.926,-9.545 3.459998,-21.677 4.751998,-27.104 1.025,-4.303 1.468,-8.194 -0.477,-13.533998 -0.77,-2.113 -0.766,-4.779 0.907,-7.298 3.097,-3.53 7.097,-6.398 11.62,-8.238 7.133,-2.902 14.476,-2.9 20.679,0.01 8.332,3.908 13.323,12.464 13.694,23.473998 0.075,2.238 -0.005,4.515 -0.211,6.837 z m 97.448,-89.334998 c -1.422,2.517 -14.882,26.337 -19.567,34.445 -11.479,19.868 -35.876,43.885 -62.313,49.665998 -0.506,0.111 -1.03,0.237 -1.563,0.372 0.004,-0.818 -0.003,-1.634 -0.031,-2.449 -0.544,-16.122998 -8.621,-29.385998 -21.609,-35.477998 -9.717,-4.558 -20.982,-4.665 -31.715,-0.298 -5.734,2.332 -10.907998,5.837 -15.142998,10.154 -3.513,2.761 -4.718,4.888 -14.061,8.467 -0.026,0.01 -0.048,0.021 -0.074,0.031 -2.468,0.774 -4.666,2.045 -6.519,3.671 -0.061,0.052 -0.128,0.096 -0.188,0.15 -15.323,13.737998 -39.116,40.733998 -38.923,76.437998 0.055,10.112 4.146,17.907 7.442,21.733 l -7.377,9.947 c -4.449,6.001 -12.522,7.919 -19.196,4.564 -6.0459996,-3.041 -9.3529996,-9.568 -8.2269996,-16.242 l 9.2959996,-55.119 c 2.754,-16.334 3.664,-33.003998 2.703,-49.544998 l -0.857,-14.746 c -0.896,-15.413 4.363,-30.162 14.809,-41.53 10.446,-11.368 24.698,-17.8539998 40.136,-18.2619998 0,0 160.323998,-4.484 160.451998,-4.484 4.458,0 8.595,2.173 11.127,5.866 2.562,3.7399998 3.079,8.4519998 1.398,12.6489998 z"
   id="path628"
   style="fill:#ff0000" />
</svg>
